{"title":"Yasujiro Ozu - The.Munekata.Sisters.1950.DVDRip.x264","uid":8644439,"size":1948621623,"categoryP":"video","categoryS":"movies","magnet":"?xt=urn:btih:685d60510d8704ec134403f95c66bb271012545c&amp;dn=Yasujiro+Ozu+-+The.Munekata.Sisters.1950.DVDRip.x264&amp;tr=udp%3A%2F%2Ftracker.openbittorrent.com%3A80&amp;tr=udp%3A%2F%2Fopen.demonii.com%3A1337&amp;tr=udp%3A%2F%2Ftracker.coppersurfer.tk%3A6969&amp;tr=udp%3A%2F%2Fexodus.desync.com%3A6969","seeders":4,"leechers":2,"uploader":"rpessoa","files":1,"time":1372953994,"description":"Setsuko is unhappily to Mimura, an engineer with no job and a bad drinking habit. She had always been in love with Hiroshi but both of them failed to propose when Hiroshi left for France a few years ago. Now he is back and Mariko (Setsuko's sister) tries to reunite them. She too is secretly in love with Hiroshi. Written by phs\n\nSUBS: English, Japanese, Chinese\n &lt;a href=&quot;\nhttp://www.imdb.com/title/tt0042762/&quot; rel=&quot;nofollow&quot; target=&quot;_NEW&quot;&gt;\nhttp://www.imdb.com/title/tt0042762/&lt;/a&gt;\n\nGeneral\nUnique ID : 241316978572581439723692072948614141143 (0xB58BF5A29769C4F0ADDF5F15DD9994D7)\nComplete name : The.Munekata.Sisters.1950.DVDRip.x264.mkv\nFormat : Matroska\nFormat version : Version 2\nFile size : 1.81 GiB\nDuration : 1h 51mn\nOverall bit rate : 2 325 Kbps\nEncoded date : UTC 2013-06-10 03:21:04\nWriting application : mkvmerge v5.8.0 ('No Sleep / Pillow') built on Sep 2 2012 15:37:04\nWriting library : libebml v1.2.3 + libmatroska v1.3.0\n\nVideo\nID : 1\nFormat : AVC\nFormat/Info : Advanced Video Codec\nFormat profile : &lt;a class=&quot;__cf_email__&quot; href=&quot;/cdn-cgi/l/email-protection&quot; data-cfemail=&quot;f7bf9e909fb7bbc4d9c6&quot;&gt;[email&amp;#160;protected]&lt;/a&gt;&lt;script cf-hash='f9e31' type=&quot;text/javascript&quot;&gt;\n/* &lt;![CDATA[ */!function(){try{var t=&quot;currentScript&quot;in document?document.currentScript:function(){for(var t=document.getElementsByTagName(&quot;script&quot;),e=t.length;e--;)if(t[e].getAttribute(&quot;cf-hash&quot;))return t[e]}();if(t&amp;&amp;t.previousSibling){var e,r,n,i,c=t.previousSibling,a=c.getAttribute(&quot;data-cfemail&quot;);if(a){for(e=&quot;&quot;,r=parseInt(a.substr(0,2),16),n=2;a.length-n;n+=2)i=parseInt(a.substr(n,2),16)^r,e+=String.fromCharCode(i);e=document.createTextNode(e),c.parentNode.replaceChild(e,c)}}}catch(u){}}();/* ]]&gt; */&lt;/script&gt;\nFormat settings, CABAC : Yes\nFormat settings, ReFrames : 11 frames\nCodec ID : V_MPEG4/ISO/AVC\nDuration : 1h 51mn\nBit rate : 1 831 Kbps\nWidth : 712 pixels\nHeight : 480 pixels\nDisplay aspect ratio : 4:3\nFrame rate : 23.976 fps\nColor space : YUV\nChroma subsampling : 4:2:0\nBit depth : 8 bits\nScan type : Progressive\nBits/(Pixel*Frame) : 0.223\nStream size : 1.43 GiB (79%)\nWriting library : x264 core 132 r2310 76a5c3a\nEncoding settings : cabac=1 / ref=11 / deblock=1:-3:-3 / analyse=0x3:0x133 / me=umh / subme=11 / psy=1 / psy_rd=0.95:0.05 / mixed_ref=1 / me_range=32 / chroma_me=1 / trellis=2 / 8x8dct=1 / cqm=0 / deadzone=21,11 / fast_pskip=0 / chroma_qp_offset=-3 / threads=12 / lookahead_threads=3 / sliced_threads=0 / nr=0 / decimate=1 / interlaced=0 / bluray_compat=0 / constrained_intra=0 / bframes=10 / b_pyramid=2 / b_adapt=2 / b_bias=0 / direct=3 / weightb=1 / open_gop=0 / weightp=2 / keyint=250 / keyint_min=23 / scenecut=40 / intra_refresh=0 / rc=crf / mbtree=0 / crf=14.9 / qcomp=0.65 / qpmin=0 / qpmax=69 / qpstep=4 / ip_ratio=1.40 / pb_ratio=1.30 / aq=2:0.95\nLanguage : English\nDefault : Yes\nForced : No\n\nAudio\nID : 2\nFormat : AC-3\nFormat/Info : Audio Coding 3\nMode extension : CM (complete main)\nCodec ID : A_AC3\nDuration : 1h 51mn\nBit rate mode : Constant\nBit rate : 448 Kbps\nChannel(s) : 2 channels\nChannel positions : Front: L R\nSampling rate : 48.0 KHz\nBit depth : 16 bits\nCompression mode : Lossy\nStream size : 358 MiB (19%)\nDefault : Yes\nForced : No\n\nText #1\nID : 3\nFormat : UTF-8\nCodec ID : S_TEXT/UTF8\nCodec ID/Info : UTF-8 Plain Text\nLanguage : English\nDefault : Yes\nForced : No\n\nText #2\nID : 4\nFormat : VobSub\nMuxing mode : zlib\nCodec ID : S_VOBSUB\nCodec ID/Info : The same subtitle format used on DVDs\nLanguage : Chinese\nDefault : No\nForced : No\n\nText #3\nID : 5\nFormat : VobSub\nMuxing mode : zlib\nCodec ID : S_VOBSUB\nCodec ID/Info : The same subtitle format used on DVDs\nLanguage : Japanese\nDefault : No\nForced : No\n\nMenu\n00:00:00.000 : en:Chapter 1\n00:01:33.500 : en:Chapter 2\n00:06:03.500 : en:Chapter 3\n00:09:49.500 : en:Chapter 4\n00:12:38.500 : en:Chapter 5\n00:19:25.500 : en:Chapter 6\n00:22:12.301 : en:Chapter 7\n00:25:56.501 : en:Chapter 8\n00:32:01.501 : en:Chapter 9\n00:34:29.501 : en:Chapter 10\n00:39:14.501 : en:Chapter 11\n00:44:59.501 : en:Chapter 12\n00:51:23.501 : en:Chapter 13\n00:58:21.302 : en:Chapter 14\n01:02:37.335 : en:Chapter 15\n01:09:27.335 : en:Chapter 16\n01:13:09.335 : en:Chapter 17\n01:20:27.335 : en:Chapter 18\n01:26:48.335 : en:Chapter 19\n01:32:41.303 : en:Chapter 20\n01:38:37.336 : en:Chapter 21\n01:42:53.336 : en:Chapter 22\n01:48:02.336 : en:Chapter 23\n\nMy rip.","torrent":{"xt":"urn:btih:685d60510d8704ec134403f95c66bb271012545c","amp;dn":"Yasujiro+Ozu+-+The.Munekata.Sisters.1950.DVDRip.x264","amp;tr":["udp%3A%2F%2Ftracker.openbittorrent.com%3A80","udp%3A%2F%2Fopen.demonii.com%3A1337","udp%3A%2F%2Ftracker.coppersurfer.tk%3A6969","udp%3A%2F%2Fexodus.desync.com%3A6969"],"infoHash":"685d60510d8704ec134403f95c66bb271012545c","infoHashBuffer":{"type":"Buffer","data":[104,93,96,81,13,135,4,236,19,68,3,249,92,102,187,39,16,18,84,92]},"announce":[],"urlList":[]}}